<?xml version="1.0" encoding="utf-8"?>
<!-- Generator: Adobe Illustrator 24.0.2, SVG Export Plug-In . SVG Version: 6.00 Build 0)  -->
<svg version="1.1"
	 id="Слой_1" xmlns:cc="http://creativecommons.org/ns#" xmlns:dc="http://purl.org/dc/elements/1.1/" xmlns:inkscape="http://www.inkscape.org/namespaces/inkscape" xmlns:rdf="http://www.w3.org/1999/02/22-rdf-syntax-ns#" xmlns:sodipodi="http://sodipodi.sourceforge.net/DTD/sodipodi-0.dtd" xmlns:svg="http://www.w3.org/2000/svg"
	 xmlns="http://www.w3.org/2000/svg" xmlns:xlink="http://www.w3.org/1999/xlink" x="0px" y="0px" viewBox="0 0 1057.1 723.1"
	 style="enable-background:new 0 0 1057.1 723.1;" xml:space="preserve">
<style type="text/css">
	.st0{fill:none;stroke:#FF0000;stroke-width:15;stroke-miterlimit:10;}
	.st1{fill:#F70000;}
	.st2{fill:#F70000;stroke:#FFFFFF;stroke-miterlimit:10;}
	.st3{font-family:'Arial-BoldMT';}
	.st4{font-size:240.007px;}
	.st5{fill:none;stroke:#FFFFFF;stroke-miterlimit:10;}
</style>
<path class="st0" d="M200.7,17.5c-55.6,0-101.3,26-131.9,65s-46.9,91-46.9,144.6c0,89.5,56.8,172.3,120.9,241.7
	s137.1,126.1,172.1,159c5,4.7,13.6,4.7,18.7,0c34.9-33,108.1-89.6,172.3-159c64.1-69.5,120.9-152.3,120.9-241.7
	c0-53.6-16.2-105.6-46.9-144.6s-76-65-131.6-65c-49,0-93.9,26.2-123.7,57.1C294.7,43.6,249.7,17.5,200.7,17.5z"/>
<path class="st1" d="M31.8,287.8h35c7.8,0.1,14.9-6.9,14.9-14.7c0-7.8-7.2-14.8-14.9-14.7H33.6C36.3,280.4,30.4,274.6,31.8,287.8z"
	/>
<path class="st2" d="M263.5,133.1c-4.6,0.6-8.9,3.7-11,7.8l-61,117.4h-14.3c-7.8-0.1-14.9,6.9-14.9,14.7c0,7.8,7.2,14.8,14.9,14.7
	h23.2c5.4,0,10.7-3.2,13.1-8.1l50.9-97.9l95.7,215c2.3,5,7.6,8.4,13.1,8.5s10.9-3.2,13.4-8L442,287.8h125.4
	c7.8,0.1,14.9-6.9,14.9-14.7c0-7.8-7.2-14.8-14.9-14.7H433.1c-5.5-0.1-10.9,3.2-13.3,8.1l-45.3,90L279,141.9
	C276.4,136,269.8,132.3,263.5,133.1L263.5,133.1z"/>
<path class="st2" d="M116.9,258.4c-7.7,0.4-14.4,7.7-14,15.4c0.4,7.7,7.7,14.4,15.4,14h7.4c7.8,0.1,14.9-6.9,14.9-14.7
	c0-7.8-7.2-14.8-14.9-14.7C122.8,258.4,119.7,258.4,116.9,258.4L116.9,258.4z"/>
<text transform="matrix(0.9715 0 0 1 562.2869 632.2764)" class="st1 st3 st4">XXX</text>
<text id="Rate" transform="matrix(0.9715 0 0 1 562.2869 632.2764)" class="st5 st3 st4">XXX</text>
</svg>
