<?xml version="1.0" encoding="utf-8"?>
<!-- Generator: Adobe Illustrator 24.0.2, SVG Export Plug-In . SVG Version: 6.00 Build 0)  -->
<svg version="1.1"
	 id="Слой_1" xmlns:cc="http://creativecommons.org/ns#" xmlns:dc="http://purl.org/dc/elements/1.1/" xmlns:inkscape="http://www.inkscape.org/namespaces/inkscape" xmlns:rdf="http://www.w3.org/1999/02/22-rdf-syntax-ns#" xmlns:sodipodi="http://sodipodi.sourceforge.net/DTD/sodipodi-0.dtd" xmlns:svg="http://www.w3.org/2000/svg"
	 xmlns="http://www.w3.org/2000/svg" xmlns:xlink="http://www.w3.org/1999/xlink" x="0px" y="0px" viewBox="0 0 1057.1 723.1"
	 style="enable-background:new 0 0 1057.1 723.1;" xml:space="preserve">
<style type="text/css">
	.st0{fill:#FF0000;stroke:#FFFFFF;stroke-miterlimit:10;}
	.st1{fill:#19FF00;stroke:#FFFFFF;stroke-miterlimit:10;}
	.st2{fill:#F70000;stroke:#FFFFFF;stroke-miterlimit:10;}
	.st3{fill:none;stroke:#FFFFFF;stroke-miterlimit:10;}
	.st4{font-family:'Arial-BoldMT';}
	.st5{font-size:240.007px;}
</style>
<path class="st0" d="M191.9,0.5c-59.6,0-108.5,27.4-141.3,68.6s-50.2,96-50.2,152.6c0,94.4,60.8,181.8,129.5,255.1
	s146.9,133.1,184.3,167.8c5.4,5,14.6,5,20,0c37.4-34.8,115.8-94.6,184.5-167.8c68.7-73.3,129.5-160.7,129.5-255.1
	c0-56.6-17.4-111.4-50.2-152.6S516.6,0.5,457,0.5c-52.5,0-100.6,27.6-132.5,60.3C292.6,28.1,244.4,0.5,191.9,0.5z"/>
<path class="st1" d="M191.9,30c46.6,0,95.9,30,121.3,60.8c5.5,6.6,17,6.6,22.5,0C361.1,59.9,410.4,30,457,30
	c50.8,0,90.3,22.1,118.3,57.3S619,171.2,619,221.8c0,81.5-55.2,164.1-121.7,235.1C434.8,523.4,366,577.3,324.5,614.5
	c-41.6-37.3-110.6-91.1-173-157.7c-48.6-51.8-90.9-109.7-110.2-169h25.5c7.8,0.1,14.9-6.9,14.9-14.7c0-7.8-7.2-14.8-14.9-14.7H33.6
	c-2.3-12.2-3.7-24.5-3.7-36.6c0-50.5,15.7-99.2,43.7-134.5C101.6,52.1,141.2,30,191.9,30L191.9,30z"/>
<path class="st2" d="M263.5,133.1c-4.6,0.6-8.9,3.7-11,7.8l-61,117.4h-14.3c-7.8-0.1-14.9,6.9-14.9,14.7c0,7.8,7.2,14.8,14.9,14.7
	h23.2c5.4,0,10.7-3.2,13.1-8.1l50.9-97.9l95.7,215c2.3,5,7.6,8.4,13.1,8.5c5.5,0.1,10.9-3.2,13.4-8L442,287.8h125.4
	c7.8,0.1,14.9-6.9,14.9-14.7c0-7.8-7.2-14.8-14.9-14.7H433.1c-5.5-0.1-10.9,3.2-13.3,8.1l-45.3,90l-95.5-214.6
	C276.4,136,269.8,132.3,263.5,133.1L263.5,133.1z"/>
<path class="st3" d="M116.9,258.4c-7.7,0.4-14.4,7.7-14,15.4c0.4,7.7,7.7,14.4,15.4,14h7.4c7.8,0.1,14.9-6.9,14.9-14.7
	c0-7.8-7.2-14.8-14.9-14.7C122.8,258.4,119.7,258.4,116.9,258.4L116.9,258.4z"/>
<text id="Rate" transform="matrix(0.9715 0 0 1 589.8615 632.2762)" class="st2 st4 st5">XXX</text>
</svg>
