<?xml version="1.0" encoding="utf-8"?>
<!-- Generator: Adobe Illustrator 24.0.2, SVG Export Plug-In . SVG Version: 6.00 Build 0)  -->
<svg version="1.1"
	 id="Слой_1" xmlns:cc="http://creativecommons.org/ns#" xmlns:dc="http://purl.org/dc/elements/1.1/" xmlns:inkscape="http://www.inkscape.org/namespaces/inkscape" xmlns:rdf="http://www.w3.org/1999/02/22-rdf-syntax-ns#" xmlns:sodipodi="http://sodipodi.sourceforge.net/DTD/sodipodi-0.dtd" xmlns:svg="http://www.w3.org/2000/svg"
	 xmlns="http://www.w3.org/2000/svg" xmlns:xlink="http://www.w3.org/1999/xlink" x="0px" y="0px" viewBox="0 0 1920 1080"
	 style="enable-background:new 0 0 1920 1080;" xml:space="preserve">
<style type="text/css">
	.st0{fill:none;stroke:#FF0000;stroke-width:8;stroke-miterlimit:10;}
	.st1{fill:#F70000;}
	.st2{fill:#FF0000;}
	.st3{font-family:'Arial-BoldMT';}
	.st4{font-size:136.1348px;}
</style>
<path class="st0" d="M760.2,7.8c-32,0-58.2,14.7-75.8,36.9c-17.6,22.1-26.9,51.6-26.9,82c0,50.7,32.6,97.7,69.5,137.1
	s78.8,71.5,98.9,90.2c2.9,2.7,7.8,2.7,10.7,0c20.1-18.7,62.1-50.8,99-90.2s69.5-86.4,69.5-137.1c0-30.4-9.3-59.9-26.9-82
	S934.4,7.8,902.4,7.8c-28.2,0-54,14.8-71.1,32.4C814.3,22.6,788.4,7.8,760.2,7.8z"/>
<path class="st1" d="M666.1,161.1c4.8,0,9.6,0,14.4,0c4.5,0.1,8.6-3.9,8.6-8.3s-4.1-8.4-8.6-8.3h-19.1c0.6,3.6,1.1,6.6,1.5,8.8
	c0.2,1,0.4,2.1,0.9,3.6C664.6,158.7,665.4,160.1,666.1,161.1z"/>
<path class="st1" d="M796.3,73.3c-2.6,0.3-5.1,2.1-6.3,4.4l-35,66.6h-8.2c-4.5-0.1-8.6,3.9-8.6,8.3c0,4.4,4.1,8.4,8.6,8.3h13.3
	c3.1,0,6.1-1.8,7.5-4.6l29.2-55.5l55,122c1.3,2.8,4.4,4.8,7.5,4.8c3.2,0.1,6.3-1.8,7.7-4.5l31.8-62.1h72c4.5,0.1,8.6-3.9,8.6-8.3
	s-4.1-8.4-8.6-8.3h-77.2c-3.2-0.1-6.3,1.8-7.6,4.6l-26,51L805.2,78.3C803.7,75,799.9,72.9,796.3,73.3L796.3,73.3z"/>
<path class="st1" d="M712.1,144.4c-4.4,0.2-8.3,4.4-8,8.7c0.2,4.4,4.4,8.2,8.8,7.9h4.3c4.5,0.1,8.6-3.9,8.6-8.3s-4.1-8.4-8.6-8.3
	C715.5,144.4,713.7,144.4,712.1,144.4L712.1,144.4z"/>
<text id="Rate" transform="matrix(0.9841 0 0 1 967.9922 356.4761)" class="st2 st3 st4">XXX</text>
<text id="stepStatus" transform="matrix(0.9841 0 0 1 610.1353 356.025)" class="st2 st3 st4">X</text>
</svg>
